<mxfile host="app.diagrams.net" modified="2023-07-31T13:07:09.168Z" agent="Mozilla/5.0 (Windows NT 10.0; Win64; x64) AppleWebKit/537.36 (KHTML, like Gecko) Chrome/115.0.0.0 Safari/537.36" etag="r9nUPuczqW9AZ4j2cP3M" version="21.6.6" type="device">
  <diagram name="Page-1" id="cIFvPLYdw34dpAe94Jia">
    <mxGraphModel dx="1376" dy="768" grid="1" gridSize="10" guides="1" tooltips="1" connect="1" arrows="1" fold="1" page="1" pageScale="1" pageWidth="850" pageHeight="1100" background="#ffffff" math="0" shadow="0">
      <root>
        <mxCell id="0" />
        <mxCell id="1" parent="0" />
        <mxCell id="5IUaC9ba8KwLT6UhStxY-1" value="Function: l_cc_auto_setHeatingValues&#xa;&#xa;&#xa;&#xa;Description:&#xa;    This will only set the values that relate to heating. This means blend door and fan speed.&#xa;    It takes two values for how much should the blend door be opened, first one in case of heating, second&#xa;    in case of cooling, and fan speed.&#xa;&#xa;&#xa;&#xa;Parameters In:&#xa;    blendValue: blend_door_value_e&#xa;    blendValueWhileCooling: blend_door_value_e&#xa;    fanSpeed : auto_fan_speed_e&#xa;&#xa;Parameters Out:&#xa;    None&#xa;&#xa;&#xa;&#xa;Return Value:&#xa;    None" style="text;whiteSpace=wrap;" vertex="1" parent="1">
          <mxGeometry x="520" y="10" width="330" height="390" as="geometry" />
        </mxCell>
        <mxCell id="5IUaC9ba8KwLT6UhStxY-3" style="edgeStyle=orthogonalEdgeStyle;rounded=0;orthogonalLoop=1;jettySize=auto;html=1;" edge="1" parent="1" source="5IUaC9ba8KwLT6UhStxY-2" target="5IUaC9ba8KwLT6UhStxY-4">
          <mxGeometry relative="1" as="geometry">
            <mxPoint x="270" y="310" as="targetPoint" />
          </mxGeometry>
        </mxCell>
        <mxCell id="5IUaC9ba8KwLT6UhStxY-2" value="" style="ellipse;whiteSpace=wrap;html=1;" vertex="1" parent="1">
          <mxGeometry x="210" y="140" width="120" height="80" as="geometry" />
        </mxCell>
        <mxCell id="5IUaC9ba8KwLT6UhStxY-5" style="edgeStyle=orthogonalEdgeStyle;rounded=0;orthogonalLoop=1;jettySize=auto;html=1;" edge="1" parent="1" source="5IUaC9ba8KwLT6UhStxY-4" target="5IUaC9ba8KwLT6UhStxY-7">
          <mxGeometry relative="1" as="geometry">
            <mxPoint x="270" y="390" as="targetPoint" />
          </mxGeometry>
        </mxCell>
        <mxCell id="5IUaC9ba8KwLT6UhStxY-4" value="call&amp;nbsp;l_cc_auto_setHeatingValues" style="rounded=1;whiteSpace=wrap;html=1;" vertex="1" parent="1">
          <mxGeometry x="165" y="280" width="210" height="60" as="geometry" />
        </mxCell>
        <mxCell id="5IUaC9ba8KwLT6UhStxY-8" value="yes" style="edgeStyle=orthogonalEdgeStyle;rounded=0;orthogonalLoop=1;jettySize=auto;html=1;" edge="1" parent="1" source="5IUaC9ba8KwLT6UhStxY-7" target="5IUaC9ba8KwLT6UhStxY-9">
          <mxGeometry relative="1" as="geometry">
            <mxPoint x="440" y="460" as="targetPoint" />
          </mxGeometry>
        </mxCell>
        <mxCell id="5IUaC9ba8KwLT6UhStxY-10" value="no" style="edgeStyle=orthogonalEdgeStyle;rounded=0;orthogonalLoop=1;jettySize=auto;html=1;entryX=0.5;entryY=0;entryDx=0;entryDy=0;" edge="1" parent="1" source="5IUaC9ba8KwLT6UhStxY-7" target="5IUaC9ba8KwLT6UhStxY-11">
          <mxGeometry relative="1" as="geometry">
            <mxPoint x="270" y="580" as="targetPoint" />
          </mxGeometry>
        </mxCell>
        <mxCell id="5IUaC9ba8KwLT6UhStxY-7" value="if currentState.heating &lt;br&gt;is true" style="rhombus;whiteSpace=wrap;html=1;" vertex="1" parent="1">
          <mxGeometry x="195" y="390" width="150" height="140" as="geometry" />
        </mxCell>
        <mxCell id="5IUaC9ba8KwLT6UhStxY-12" style="edgeStyle=orthogonalEdgeStyle;rounded=0;orthogonalLoop=1;jettySize=auto;html=1;entryX=1;entryY=0.5;entryDx=0;entryDy=0;" edge="1" parent="1" source="5IUaC9ba8KwLT6UhStxY-9" target="5IUaC9ba8KwLT6UhStxY-14">
          <mxGeometry relative="1" as="geometry">
            <mxPoint x="545" y="700" as="targetPoint" />
            <Array as="points">
              <mxPoint x="550" y="715" />
            </Array>
          </mxGeometry>
        </mxCell>
        <mxCell id="5IUaC9ba8KwLT6UhStxY-9" value="call&amp;nbsp;l_cc_auto_openBlendDoor given blendValue" style="rounded=1;whiteSpace=wrap;html=1;" vertex="1" parent="1">
          <mxGeometry x="450" y="430" width="190" height="60" as="geometry" />
        </mxCell>
        <mxCell id="5IUaC9ba8KwLT6UhStxY-13" style="edgeStyle=orthogonalEdgeStyle;rounded=0;orthogonalLoop=1;jettySize=auto;html=1;" edge="1" parent="1" source="5IUaC9ba8KwLT6UhStxY-11" target="5IUaC9ba8KwLT6UhStxY-14">
          <mxGeometry relative="1" as="geometry">
            <mxPoint x="280" y="700" as="targetPoint" />
          </mxGeometry>
        </mxCell>
        <mxCell id="5IUaC9ba8KwLT6UhStxY-11" value="call&amp;nbsp;l_cc_auto_openBlendDoor given&amp;nbsp;blendValueWhileCooling" style="rounded=1;whiteSpace=wrap;html=1;" vertex="1" parent="1">
          <mxGeometry x="175" y="590" width="190" height="60" as="geometry" />
        </mxCell>
        <mxCell id="5IUaC9ba8KwLT6UhStxY-15" style="edgeStyle=orthogonalEdgeStyle;rounded=0;orthogonalLoop=1;jettySize=auto;html=1;" edge="1" parent="1" source="5IUaC9ba8KwLT6UhStxY-14" target="5IUaC9ba8KwLT6UhStxY-16">
          <mxGeometry relative="1" as="geometry">
            <mxPoint x="270" y="790" as="targetPoint" />
          </mxGeometry>
        </mxCell>
        <mxCell id="5IUaC9ba8KwLT6UhStxY-14" value="" style="rhombus;whiteSpace=wrap;html=1;" vertex="1" parent="1">
          <mxGeometry x="245" y="690" width="50" height="50" as="geometry" />
        </mxCell>
        <mxCell id="5IUaC9ba8KwLT6UhStxY-17" style="edgeStyle=orthogonalEdgeStyle;rounded=0;orthogonalLoop=1;jettySize=auto;html=1;" edge="1" parent="1" source="5IUaC9ba8KwLT6UhStxY-16" target="5IUaC9ba8KwLT6UhStxY-18">
          <mxGeometry relative="1" as="geometry">
            <mxPoint x="270" y="900" as="targetPoint" />
          </mxGeometry>
        </mxCell>
        <mxCell id="5IUaC9ba8KwLT6UhStxY-16" value="call&amp;nbsp;g_cc_ac_setFanSpeed&lt;span style=&quot;background-color: initial;&quot;&gt;&amp;nbsp;&lt;br&gt;given fanSpeed and SET_AUTO_ON&lt;br&gt;&lt;/span&gt;" style="rounded=1;whiteSpace=wrap;html=1;" vertex="1" parent="1">
          <mxGeometry x="175" y="790" width="190" height="60" as="geometry" />
        </mxCell>
        <mxCell id="5IUaC9ba8KwLT6UhStxY-18" value="" style="ellipse;whiteSpace=wrap;html=1;labelBackgroundColor=default;" vertex="1" parent="1">
          <mxGeometry x="210" y="900" width="120" height="80" as="geometry" />
        </mxCell>
      </root>
    </mxGraphModel>
  </diagram>
</mxfile>
